<svg data-v-fde0c5aa="" xmlns="http://www.w3.org/2000/svg" viewBox="0 0 300 300" class="iconAbove"><!----><defs data-v-fde0c5aa=""><!----></defs><rect data-v-fde0c5aa="" fill="#3b4d61" x="0" y="0" width="300px" height="300px" class="logo-background-square"></rect><defs data-v-fde0c5aa=""><!----></defs><g data-v-fde0c5aa="" id="fda3a1df-60e8-48a6-b679-03c928a3ef88" fill="#ffffff" transform="matrix(8.527385558775547,0,0,8.527385558775547,18.209248961499114,147.95703708388493)"><path d="M3.85 9.37L3.85 9.37L3.85 9.37Q3.64 9.34 3.50 9.18L3.50 9.18L3.50 9.18Q3.36 9.02 3.36 8.79L3.36 8.79L3.36 8.79Q3.36 8.55 3.54 8.38L3.54 8.38L3.54 8.38Q3.71 8.20 3.95 8.20L3.95 8.20L3.95 8.20Q4.19 8.20 4.36 8.38L4.36 8.38L4.36 8.38Q4.54 8.55 4.54 8.79L4.54 8.79L4.54 8.79Q4.54 9.09 4.38 9.29L4.38 9.29L4.38 9.29Q4.23 9.49 4.00 9.61L4.00 9.61L4.00 9.61Q3.78 9.73 3.52 9.78L3.52 9.78L3.52 9.78Q3.26 9.83 3.05 9.83L3.05 9.83L3.05 9.83Q2.44 9.83 1.92 9.61L1.92 9.61L1.92 9.61Q1.40 9.39 1.02 9.02L1.02 9.02L1.02 9.02Q0.64 8.64 0.43 8.12L0.43 8.12L0.43 8.12Q0.21 7.60 0.21 6.99L0.21 6.99L0.21 6.99Q0.21 6.40 0.43 5.89L0.43 5.89L0.43 5.89Q0.66 5.38 1.05 4.98L1.05 4.98L1.05 4.98Q1.44 4.59 1.95 4.37L1.95 4.37L1.95 4.37Q2.46 4.14 3.05 4.14L3.05 4.14L3.05 4.14Q3.68 4.14 4.20 4.39L4.20 4.39L4.20 4.39Q4.72 4.63 5.10 5.04L5.10 5.04L5.10 5.04Q5.47 5.45 5.68 5.98L5.68 5.98L5.68 5.98Q5.89 6.52 5.89 7.13L5.89 7.13L1.83 7.13L1.83 8.34L1.83 8.34Q1.83 8.60 1.93 8.81L1.93 8.81L1.93 8.81Q2.03 9.03 2.19 9.19L2.19 9.19L2.19 9.19Q2.35 9.35 2.58 9.45L2.58 9.45L2.58 9.45Q2.80 9.55 3.05 9.55L3.05 9.55L3.05 9.55Q3.25 9.55 3.46 9.51L3.46 9.51L3.46 9.51Q3.67 9.46 3.85 9.37ZM4.26 6.85L4.26 5.64L4.26 5.64Q4.26 5.11 3.92 4.77L3.92 4.77L3.92 4.77Q3.58 4.42 3.05 4.42L3.05 4.42L3.05 4.42Q2.52 4.42 2.18 4.77L2.18 4.77L2.18 4.77Q1.85 5.11 1.83 5.64L1.83 5.64L1.83 5.64Q1.86 5.88 1.85 6.22L1.85 6.22L1.85 6.22Q1.85 6.57 1.83 6.85L1.83 6.85L4.26 6.85ZM18.91 9.83L14.57 9.83L14.57 9.55L15.92 9.55L15.92 4.44L15.92 4.44Q15.60 4.47 15.25 4.58L15.25 4.58L15.25 4.58Q14.91 4.69 14.59 4.86L14.59 4.86L14.59 4.86Q14.27 5.04 13.97 5.26L13.97 5.26L13.97 5.26Q13.68 5.47 13.44 5.70L13.44 5.70L13.44 9.83L10.44 9.83L10.44 9.55L11.79 9.55L11.79 4.44L11.79 4.44Q11.47 4.47 11.12 4.58L11.12 4.58L11.12 4.58Q10.78 4.69 10.46 4.86L10.46 4.86L10.46 4.86Q10.14 5.04 9.84 5.26L9.84 5.26L9.84 5.26Q9.55 5.47 9.31 5.70L9.31 5.70L9.31 9.83L6.31 9.83L6.31 9.55L7.66 9.55L7.66 4.42L6.31 4.42L6.31 4.14L9.31 4.14L9.31 5.32L9.31 5.32Q9.86 4.86 10.54 4.50L10.54 4.50L10.54 4.50Q11.21 4.14 11.97 4.14L11.97 4.14L11.97 4.14Q12.52 4.14 12.91 4.49L12.91 4.49L12.91 4.49Q13.31 4.84 13.41 5.35L13.41 5.35L13.41 5.35Q13.97 4.86 14.64 4.50L14.64 4.50L14.64 4.50Q15.30 4.14 16.09 4.14L16.09 4.14L16.09 4.14Q16.80 4.14 17.18 4.56L17.18 4.56L17.18 4.56Q17.57 4.97 17.57 5.64L17.57 5.64L17.57 9.55L18.91 9.55L18.91 9.83ZM24.74 7.77L24.74 4.42L23.41 4.42L23.41 4.16L26.33 4.16L26.33 4.42L25.02 4.42L25.02 7.90L25.02 7.90Q25.02 8.36 24.84 8.71L24.84 8.71L24.84 8.71Q24.65 9.07 24.35 9.32L24.35 9.32L24.35 9.32Q24.05 9.58 23.65 9.70L23.65 9.70L23.65 9.70Q23.25 9.83 22.83 9.83L22.83 9.83L22.83 9.83Q22.43 9.83 22.04 9.69L22.04 9.69L22.04 9.69Q21.64 9.55 21.34 9.30L21.34 9.30L21.34 9.30Q21.03 9.04 20.84 8.69L20.84 8.69L20.84 8.69Q20.65 8.33 20.65 7.90L20.65 7.90L20.65 4.42L19.33 4.42L19.33 4.16L22.29 4.16L22.29 9.09L22.29 9.09Q22.29 9.34 22.43 9.44L22.43 9.44L22.43 9.44Q22.58 9.55 22.83 9.55L22.83 9.55L22.83 9.55Q23.66 9.55 24.20 9.10L24.20 9.10L24.20 9.10Q24.74 8.65 24.74 7.77L24.74 7.77ZM28.84 4.49L28.84 4.49L28.84 4.49Q28.70 4.42 28.56 4.42L28.56 4.42L28.56 4.42Q28.32 4.42 28.17 4.57L28.17 4.57L28.17 4.57Q28.03 4.72 28.03 4.96L28.03 4.96L28.03 4.96Q28.03 5.46 28.56 5.50L28.56 5.50L28.56 5.50Q29.51 5.57 30.11 6.09L30.11 6.09L30.11 6.09Q30.70 6.61 30.70 7.66L30.70 7.66L30.70 7.66Q30.70 8.13 30.53 8.53L30.53 8.53L30.53 8.53Q30.37 8.93 30.07 9.21L30.07 9.21L30.07 9.21Q29.78 9.49 29.38 9.65L29.38 9.65L29.38 9.65Q28.98 9.81 28.52 9.81L28.52 9.81L28.52 9.81Q28.06 9.81 27.66 9.65L27.66 9.65L27.66 9.65Q27.27 9.49 27.00 9.21L27.00 9.21L27.00 9.21Q26.73 8.92 26.57 8.53L26.57 8.53L26.57 8.53Q26.42 8.13 26.42 7.66L26.42 7.66L26.42 7.66Q26.42 7.32 26.66 7.08L26.66 7.08L26.66 7.08Q26.89 6.85 27.22 6.85L27.22 6.85L27.22 6.85Q27.55 6.85 27.79 7.08L27.79 7.08L27.79 7.08Q28.03 7.32 28.03 7.66L28.03 7.66L28.03 7.66Q28.03 7.90 27.92 8.08L27.92 8.08L27.92 8.08Q27.80 8.26 27.63 8.36L27.63 8.36L27.63 8.36Q27.45 8.47 27.24 8.48L27.24 8.48L27.24 8.48Q27.02 8.48 26.82 8.37L26.82 8.37L26.82 8.37Q27.02 8.95 27.46 9.25L27.46 9.25L27.46 9.25Q27.90 9.55 28.56 9.55L28.56 9.55L28.56 9.55Q28.78 9.55 28.94 9.39L28.94 9.39L28.94 9.39Q29.09 9.24 29.09 9.02L29.09 9.02L29.09 6.31L29.09 6.31Q29.09 6.08 28.94 5.93L28.94 5.93L28.94 5.93Q28.78 5.78 28.56 5.78L28.56 5.78L28.56 5.78Q28.20 5.78 27.97 5.55L27.97 5.55L27.97 5.55Q27.75 5.32 27.75 4.96L27.75 4.96L27.75 4.96Q27.75 4.61 27.97 4.37L27.97 4.37L27.97 4.37Q28.20 4.14 28.56 4.14L28.56 4.14L28.56 4.14Q28.90 4.14 29.13 4.38L29.13 4.38L29.13 4.38Q29.36 4.62 29.36 4.97L29.36 4.97L29.36 4.97Q29.36 5.17 29.22 5.30L29.22 5.30L29.22 5.30Q29.09 5.43 28.90 5.43L28.90 5.43L28.90 5.43Q28.70 5.43 28.56 5.30L28.56 5.30L28.56 5.30Q28.42 5.17 28.42 4.97L28.42 4.97L28.42 4.97Q28.42 4.77 28.54 4.65L28.54 4.65L28.54 4.65Q28.66 4.52 28.84 4.49Z"></path></g><defs data-v-fde0c5aa=""><!----></defs><g data-v-fde0c5aa="" id="dfef5752-6241-4a4a-8c8c-bcb63a09dfee" stroke="none" fill="#ef9d1f" transform="matrix(3.256649692647556,0,0,3.256649692647556,97.8936049176391,61.05087763117242)"><circle cx="25.044" cy="25.043" r="6.956"></circle><circle cx="6.956" cy="25.043" r="6.956"></circle><path d="M.172 2.201H13.74v13.568H.172zM18.432 2.201H32v13.568H18.432z"></path></g><!----></svg>